<svg width="46" height="48" viewBox="0 0 46 48" fill="none" xmlns="http://www.w3.org/2000/svg">
<path d="M46 24.498C46 11.518 35.7039 0.998047 23 0.998047C10.2961 0.998047 0 11.518 0 24.498C0 37.4781 10.2961 47.998 23 47.998C23.1348 47.998 23.2695 47.998 23.4043 47.9889V29.7029H18.4629V23.8188H23.4043V19.4859C23.4043 14.4646 26.4051 11.7291 30.7895 11.7291C32.8918 11.7291 34.6977 11.8852 35.2188 11.9586V17.2094H32.2C29.8191 17.2094 29.352 18.366 29.352 20.0643V23.8096H35.057L34.3113 29.6938H29.352V47.0893C38.9652 44.2711 46 35.2291 46 24.498Z" fill="black"/>
</svg>
