<svg width="46" height="48" viewBox="0 0 46 48" fill="none" xmlns="http://www.w3.org/2000/svg">
<path d="M23 47.998C35.7056 47.998 46 37.4798 46 24.498C46 11.5163 35.7056 0.998047 23 0.998047C10.2944 0.998047 0 11.5163 0 24.498C0 37.4798 10.2944 47.998 23 47.998ZM10.5244 23.9889L32.7003 15.2528C33.7295 14.8728 34.6284 15.5093 34.2949 17.0995L34.2968 17.0975L30.521 35.2728C30.2412 36.5614 29.4917 36.8747 28.4433 36.2676L22.6933 31.9378L19.9199 34.6677C19.6132 34.981 19.3545 35.2454 18.7603 35.2454L19.1686 29.2666L29.8252 19.4299C30.2891 19.0128 29.7217 18.7778 29.1103 19.1929L15.9409 27.6647L10.2638 25.8552C9.03133 25.4557 9.0045 24.596 10.5244 23.9889Z" fill="black"/>
</svg>
