<svg width="47" height="48" viewBox="0 0 47 48" fill="none" xmlns="http://www.w3.org/2000/svg">
<path d="M23.5 0.998047C10.5233 0.998047 0 11.5213 0 24.498C0 37.4748 10.5233 47.998 23.5 47.998C36.4767 47.998 47 37.4748 47 24.498C47 11.5213 36.4767 0.998047 23.5 0.998047ZM34.2298 19.3208C34.2402 19.5521 34.2453 19.7845 34.2453 20.0179C34.2453 27.1455 28.8199 35.3645 18.8983 35.3649H18.8987H18.8983C15.8522 35.3649 13.0176 34.472 10.6305 32.9419C11.0526 32.9918 11.4821 33.0165 11.9171 33.0165C14.4444 33.0165 16.7701 32.1545 18.6165 30.7076C16.2552 30.6639 14.2644 29.1044 13.5773 26.9611C13.9062 27.0243 14.2443 27.0587 14.591 27.0587C15.0834 27.0587 15.5603 26.9923 16.0135 26.8686C13.5454 26.3745 11.6862 24.1933 11.6862 21.5813C11.6862 21.557 11.6862 21.5351 11.6869 21.5125C12.4137 21.9166 13.2449 22.1597 14.1299 22.187C12.6816 21.2206 11.7296 19.5686 11.7296 17.6972C11.7296 16.7089 11.9967 15.7831 12.46 14.986C15.1199 18.2498 19.0952 20.3962 23.5782 20.6218C23.4857 20.2266 23.438 19.815 23.438 19.3918C23.438 16.4142 25.8537 13.9984 28.8325 13.9984C30.384 13.9984 31.7854 14.6543 32.7697 15.7028C33.9986 15.4604 35.1525 15.0114 36.1949 14.3936C35.7915 15.6526 34.9366 16.7089 33.8228 17.377C34.914 17.2465 35.9539 16.9571 36.9203 16.5275C36.1984 17.6093 35.283 18.5596 34.2298 19.3208Z" fill="black"/>
</svg>
